<?xml version="1.0" standalone="no"?>
<!DOCTYPE svg PUBLIC "-//W3C//DTD SVG 20010904//EN"
 "http://www.w3.org/TR/2001/REC-SVG-20010904/DTD/svg10.dtd">
<svg version="1.0" xmlns="http://www.w3.org/2000/svg"
 width="700.000000pt" height="700.000000pt" viewBox="0 0 700.000000 700.000000"
 preserveAspectRatio="xMidYMid meet">
<metadata>
Created by potrace 1.14, written by Peter Selinger 2001-2017
</metadata>
<g transform="translate(0.000000,700.000000) scale(0.100000,-0.100000)"
fill="#000000" stroke="none">
<path d="M3437 6824 c-1 -1 -60 -4 -130 -8 -145 -8 -163 -10 -337 -37 -923
-148 -1742 -678 -2252 -1460 -83 -128 -193 -328 -241 -439 -9 -19 -26 -60 -40
-90 -76 -174 -160 -454 -201 -672 -30 -162 -39 -235 -51 -393 -6 -78 -6 -413
-1 -445 3 -14 7 -59 11 -100 3 -41 13 -113 20 -160 15 -89 14 -73 -1 105 -22
243 1 598 56 861 11 55 22 109 24 120 9 44 70 245 98 319 62 167 74 194 149
345 213 425 516 799 873 1075 22 17 51 39 65 51 168 133 485 310 732 407 178
71 446 148 599 172 25 4 54 9 65 11 43 8 194 26 270 31 161 11 507 4 595 -12
8 -1 40 -6 70 -10 30 -4 62 -9 71 -10 9 -2 32 -6 50 -9 133 -21 296 -63 466
-121 670 -227 1237 -667 1630 -1265 240 -364 405 -789 473 -1213 29 -183 29
-184 36 -302 12 -184 7 -454 -10 -565 -2 -14 -7 -52 -11 -85 -4 -33 -13 -90
-21 -127 -7 -37 -16 -82 -19 -100 -8 -50 -61 -242 -90 -333 -98 -302 -274
-641 -460 -889 -132 -176 -177 -228 -329 -379 -330 -328 -750 -588 -1196 -739
-213 -73 -511 -141 -642 -147 -16 0 -28 -5 -28 -10 0 -5 15 -8 33 -6 17 2 59
6 92 10 291 30 686 132 935 243 423 186 742 403 1050 711 352 353 599 739 773
1211 77 207 153 517 172 700 4 30 8 61 10 68 7 20 19 277 18 387 0 102 -10
290 -18 335 -2 14 -6 48 -10 75 -10 83 -25 178 -35 215 -5 19 -11 49 -13 65
-25 159 -139 492 -251 727 -205 432 -541 855 -916 1151 -47 37 -90 71 -96 76
-37 30 -242 165 -309 203 -386 220 -767 353 -1190 414 -60 8 -121 17 -135 20
-14 2 -90 6 -170 10 -80 3 -164 7 -188 8 -24 1 -44 1 -45 0z"/>
<path d="M3174 3916 c-2 -6 -3 -198 -2 -426 l3 -414 120 -1 c66 0 125 3 130 6
6 5 10 157 10 426 l-1 418 -128 1 c-86 1 -129 -2 -132 -10z m191 -409 c0 -192
-4 -351 -9 -354 -15 -9 -108 -9 -113 1 -5 7 -8 661 -4 699 1 4 29 6 64 5 l62
-3 0 -348z"/>
<path d="M928 3873 c-7 -13 -2 -778 4 -788 4 -6 100 -10 250 -10 l243 1 3 118
c3 117 3 118 -20 116 -13 -1 -66 -2 -119 -1 l-95 1 0 33 1 32 105 2 c58 1 107
2 110 2 4 1 5 202 1 221 0 3 -49 6 -108 5 -102 0 -106 1 -109 23 -4 22 -3 22
116 22 l120 0 0 115 0 115 -249 0 c-138 0 -251 -3 -253 -7z m432 -108 l0 -44
-117 -3 -118 -3 0 -90 0 -90 108 1 c59 0 107 -2 108 -5 12 -84 9 -86 -110 -85
-56 0 -102 -2 -102 -5 -1 -3 -2 -50 -3 -103 -1 -81 1 -98 14 -99 8 -1 61 -1
118 -1 l103 -1 -3 -45 -3 -46 -171 1 c-94 0 -175 2 -180 5 -7 5 -12 580 -5
646 1 9 44 12 181 12 l180 0 0 -45z"/>
<path d="M5610 3846 c-107 -24 -181 -82 -221 -170 -25 -56 -31 -88 -34 -180
-4 -139 34 -248 110 -315 47 -41 95 -60 178 -73 l69 -11 64 -81 63 -81 116 1
c64 1 118 4 120 5 2 2 -35 49 -81 104 -76 89 -83 101 -68 112 99 72 141 175
138 334 -4 226 -113 348 -324 362 -44 3 -98 0 -130 -7z m180 -176 c50 -27 78
-158 58 -271 -11 -63 -31 -95 -70 -115 -70 -36 -158 -9 -193 61 -27 55 -28
212 0 268 37 78 122 101 205 57z"/>
<path d="M5020 3478 l0 -368 100 0 100 0 -2 368 -3 367 -97 0 -98 0 0 -367z"/>
<path d="M1791 3714 c-23 -6 -53 -19 -66 -28 -23 -15 -25 -15 -30 6 -6 22 -10
23 -110 24 l-105 0 0 -85 c-1 -134 -1 -398 -1 -481 l1 -75 125 0 c68 1 128 4
132 8 4 5 8 82 9 172 2 197 7 232 35 240 39 13 43 -7 45 -209 1 -107 4 -198 7
-202 6 -10 244 -11 253 -1 4 4 8 84 9 179 2 191 8 224 37 234 38 12 42 -8 45
-214 1 -108 2 -199 2 -202 2 -11 253 -4 259 7 9 14 7 408 -2 467 -15 96 -96
162 -207 169 -57 4 -140 -20 -167 -47 -13 -13 -19 -12 -51 8 -62 39 -149 51
-220 30z m159 -74 c14 -6 34 -22 44 -35 26 -35 65 -33 101 5 24 25 63 41 110
45 29 2 101 -17 118 -33 39 -34 46 -71 48 -270 2 -105 0 -194 -3 -198 -9 -9
-96 -11 -110 -3 -7 4 -11 65 -13 170 -1 90 -7 176 -13 190 -31 75 -134 79
-177 7 -24 -41 -28 -79 -29 -235 -1 -112 -3 -133 -16 -134 -86 -4 -103 -3
-107 8 -3 7 -6 77 -8 155 -1 79 -3 156 -4 171 -2 42 -51 87 -94 87 -48 0 -93
-39 -108 -93 -6 -23 -12 -106 -13 -184 l-1 -143 -27 -1 c-16 0 -43 -1 -60 -2
l-33 -1 -3 247 c-1 136 1 247 5 248 77 9 74 9 90 -30 12 -31 20 -38 41 -37 17
1 37 13 55 33 42 47 135 62 207 33z"/>
<path d="M2818 3712 c-24 -8 -50 -21 -60 -29 -14 -13 -17 -12 -23 6 -8 25 2
23 -122 25 l-103 2 -1 -41 c0 -56 -1 -806 0 -827 1 -16 14 -18 130 -18 151 0
137 -15 136 152 -1 104 0 108 20 100 11 -4 54 -7 97 -7 70 0 79 2 115 31 81
65 117 156 116 294 0 105 -21 182 -67 242 -55 72 -149 100 -238 70z m147 -80
c19 -11 40 -38 58 -76 25 -50 29 -71 29 -145 1 -101 -4 -127 -32 -184 -27 -54
-61 -78 -116 -85 -56 -6 -85 2 -123 34 -17 14 -45 27 -61 28 -30 2 -30 2 -24
-44 3 -25 6 -94 7 -153 l2 -108 -65 3 -65 3 0 370 1 370 49 0 c48 0 51 -1 68
-38 21 -46 51 -47 89 -2 45 52 118 63 183 27z"/>
<path d="M2763 3558 c-38 -18 -57 -74 -56 -165 1 -66 5 -89 23 -117 42 -69
139 -65 176 6 18 35 24 135 11 201 -15 71 -87 107 -154 75z m84 -85 c4 -16 7
-57 6 -92 -1 -49 -5 -68 -18 -78 -27 -19 -55 1 -57 40 -3 78 3 141 14 149 26
16 48 8 55 -19z"/>
<path d="M3729 3719 c-155 -24 -251 -146 -251 -319 1 -147 58 -249 172 -303
37 -18 63 -22 145 -22 90 0 106 3 158 28 103 51 157 151 157 292 0 88 -18 151
-59 207 -70 95 -188 138 -322 117z m166 -81 c78 -31 130 -98 142 -184 9 -61 9
-69 0 -123 -20 -120 -104 -190 -234 -192 -156 -4 -254 92 -255 251 -1 151 66
239 197 260 51 8 112 3 150 -12z"/>
<path d="M3744 3564 c-40 -20 -64 -72 -68 -150 -6 -120 36 -194 113 -199 80
-5 121 55 121 179 0 85 -19 144 -52 165 -33 21 -79 23 -114 5z m72 -62 c18
-11 27 -52 26 -115 -2 -141 -91 -142 -94 -1 -2 83 14 124 47 124 6 0 15 -4 21
-8z"/>
<path d="M4082 3712 c-5 -1 44 -136 109 -299 87 -217 116 -300 109 -313 -22
-40 -59 -51 -127 -36 l-33 8 0 -115 0 -115 28 -5 c57 -11 176 -1 222 20 50 22
109 82 138 140 19 37 258 673 264 703 2 12 -18 14 -125 15 -71 0 -133 -2 -138
-5 -5 -3 -25 -60 -45 -125 -20 -66 -39 -125 -43 -132 -3 -7 -22 44 -41 113
-19 69 -38 130 -42 137 -6 10 -248 19 -276 9z m240 -132 c10 -36 26 -90 35
-120 8 -30 19 -67 25 -81 5 -14 12 -48 16 -74 6 -40 11 -49 29 -50 32 -2 41 6
48 43 3 17 16 67 29 109 13 43 34 113 47 156 12 42 25 78 28 78 15 3 107 5
112 2 4 -1 -13 -56 -38 -120 -60 -162 -76 -204 -113 -308 -42 -119 -92 -225
-119 -252 -35 -37 -81 -55 -148 -61 l-63 -5 0 48 c0 27 2 46 5 43 11 -11 90
13 111 33 12 11 29 38 39 60 l18 39 -102 256 c-56 140 -99 259 -97 263 3 4 30
7 62 6 l56 0 20 -65z"/>
<path d="M3660 200 l-55 -7 58 -1 c32 -1 57 2 57 8 0 6 -1 9 -2 8 -2 -1 -28
-4 -58 -8z"/>
</g>
</svg>
